<svg width="400" height="400" viewBox="0 0 400 400" fill="none" xmlns="http://www.w3.org/2000/svg">
  <rect width="400" height="400" fill="#E5E7EB"/>
  <path d="M200 150C177.909 150 160 167.909 160 190C160 212.091 177.909 230 200 230C222.091 230 240 212.091 240 190C240 167.909 222.091 150 200 150ZM200 220C183.458 220 170 206.542 170 190C170 173.458 183.458 160 200 160C216.542 160 230 173.458 230 190C230 206.542 216.542 220 200 220Z" fill="#9CA3AF"/>
  <path d="M200 240C166.863 240 140 266.863 140 300V310H260V300C260 266.863 233.137 240 200 240ZM250 300H150C150 272.386 172.386 250 200 250C227.614 250 250 272.386 250 300Z" fill="#9CA3AF"/>
</svg>